<svg width="194" height="116" viewBox="0 0 194 116" fill="none" xmlns="http://www.w3.org/2000/svg">
<path d="M191.944 42.1258C190.89 45.2637 188.62 48.2815 186.425 51.1996C184.911 53.2092 182.979 55.7513 182 57.7337V48.2792C182.066 48.1931 182.131 48.1048 182.197 48.0187C187.388 41.1199 188.677 38.2221 185.562 35.7005C184.426 34.7806 184.25 33.1154 185.17 31.9803C186.087 30.8453 187.752 30.6708 188.887 31.5884C192.281 34.3366 193.337 37.9774 191.944 42.1258Z" fill="#9E00FF" stroke="#9E00FF" stroke-width="2" stroke-miterlimit="10"/>
<path d="M182.006 48.5017V75.5034C182.006 84.1581 174.989 91.1747 166.334 91.1747H105.671C97.0166 91.1747 90 84.1581 90 75.5034V48.5017C90 41.5802 94.4837 35.7099 100.705 33.6324C101.095 33.501 101.401 33.1928 101.532 32.8032L104.224 24.8372C104.523 23.9491 105.667 23.7089 106.299 24.4022L113.558 32.3523L113.563 32.3568C113.825 32.6468 114.186 32.8303 114.578 32.8303H157.315C157.707 32.8303 158.067 32.6468 158.33 32.3568L158.334 32.3523L165.594 24.4022C166.226 23.7089 167.37 23.9491 167.669 24.8372L170.345 32.7601C170.478 33.1543 170.786 33.4647 171.183 33.5939C177.463 35.6352 182.006 41.5371 182.006 48.5017Z" fill="#9E00FF" stroke="#9E00FF" stroke-width="2" stroke-miterlimit="10"/>
<path d="M16.52 76.4C13.5067 76.4 10.8933 75.8267 8.68 74.68C6.46667 73.5333 4.77333 71.88 3.6 69.72C2.42667 67.56 1.84 65 1.84 62.04C1.84 59.08 2.42667 56.52 3.6 54.36C4.77333 52.1733 6.45333 50.5067 8.64 49.36C10.8533 48.1867 13.4533 47.6 16.44 47.6C18.92 47.6 21.2133 48.0267 23.32 48.88C25.4267 49.7333 26.9867 50.8667 28 52.28C28.32 52.7067 28.48 53.1467 28.48 53.6C28.48 54.2667 28.12 54.8667 27.4 55.4C27.08 55.64 26.68 55.76 26.2 55.76C25.8 55.76 25.4 55.68 25 55.52C24.6 55.3333 24.2667 55.08 24 54.76C23.0933 53.72 22.04 52.9733 20.84 52.52C19.64 52.04 18.1733 51.8 16.44 51.8C13.5333 51.8 11.2667 52.7067 9.64 54.52C8.01333 56.3067 7.2 58.8133 7.2 62.04C7.2 65.24 8.01333 67.7333 9.64 69.52C11.2933 71.3067 13.5867 72.2 16.52 72.2C19.88 72.2 22.56 71.2133 24.56 69.24C25.3867 68.4667 26.1467 68.08 26.84 68.08C27.32 68.08 27.76 68.24 28.16 68.56C28.7733 69.0933 29.08 69.68 29.08 70.32C29.08 70.8 28.9067 71.2667 28.56 71.72C27.4133 73.1867 25.7733 74.3333 23.64 75.16C21.5333 75.9867 19.16 76.4 16.52 76.4ZM35.6175 76.36C34.8175 76.36 34.1775 76.1467 33.6975 75.72C33.2175 75.2933 32.9775 74.7067 32.9775 73.96V59.96C32.9775 56.0933 34.0842 53.0667 36.2975 50.88C38.5108 48.6933 41.5908 47.6 45.5375 47.6C48.1242 47.6 50.3642 48.0933 52.2575 49.08C54.1508 50.0667 55.5908 51.4933 56.5775 53.36C57.5908 55.2267 58.0975 57.4267 58.0975 59.96V73.96C58.0975 74.7067 57.8575 75.2933 57.3775 75.72C56.8975 76.1467 56.2575 76.36 55.4575 76.36C54.6575 76.36 54.0042 76.1467 53.4975 75.72C53.0175 75.2667 52.7775 74.68 52.7775 73.96V67.44H38.2975V73.96C38.2975 74.68 38.0442 75.2667 37.5375 75.72C37.0575 76.1467 36.4175 76.36 35.6175 76.36ZM52.7775 63.32V59.84C52.7775 57.1733 52.1642 55.1733 50.9375 53.84C49.7375 52.48 47.9375 51.8 45.5375 51.8C40.7108 51.8 38.2975 54.48 38.2975 59.84V63.32H52.7775ZM71.8488 76.4C71.0488 76.4 70.4088 76.1867 69.9288 75.76C69.4488 75.3333 69.2088 74.7467 69.2088 74V52.12H61.4888C60.7154 52.12 60.1021 51.9467 59.6488 51.6C59.2221 51.2267 59.0088 50.72 59.0088 50.08C59.0088 49.4133 59.2221 48.9067 59.6488 48.56C60.0754 48.1867 60.6888 48 61.4888 48H82.2488C83.0488 48 83.6621 48.1867 84.0888 48.56C84.5154 48.9067 84.7288 49.4133 84.7288 50.08C84.7288 50.72 84.5021 51.2267 84.0488 51.6C83.6221 51.9467 83.0221 52.12 82.2488 52.12H74.5288V74C74.5288 74.72 74.2754 75.3067 73.7688 75.76C73.2888 76.1867 72.6488 76.4 71.8488 76.4Z" fill="#2D2D2D"/>
<path d="M100.308 76C98.2813 76 96.708 75.4667 95.588 74.4C94.468 73.3333 93.908 71.84 93.908 69.92V53.92C93.908 52.0533 94.4413 50.6 95.508 49.56C96.6013 48.52 98.108 48 100.028 48H109.268C112.361 48 114.748 48.6533 116.428 49.96C118.108 51.2667 118.948 53.16 118.948 55.64C118.948 56.8667 118.588 58.0133 117.868 59.08C117.148 60.12 116.215 60.9067 115.068 61.44V61.48C116.348 61.9867 117.388 62.8 118.188 63.92C119.015 65.0133 119.428 66.2 119.428 67.48C119.428 70.1467 118.561 72.24 116.828 73.76C115.121 75.2533 112.761 76 109.748 76H100.308ZM109.268 59.56C110.628 59.56 111.681 59.2267 112.428 58.56C113.201 57.8933 113.588 56.9333 113.588 55.68C113.588 54.4533 113.228 53.5467 112.508 52.96C111.788 52.3733 110.708 52.08 109.268 52.08H100.868C100.335 52.08 99.908 52.2533 99.588 52.6C99.2946 52.9467 99.148 53.4267 99.148 54.04V59.56H109.268ZM109.268 71.92C112.468 71.92 114.068 70.4667 114.068 67.56C114.068 66.3067 113.641 65.3333 112.788 64.64C111.961 63.9467 110.788 63.6 109.268 63.6H99.148V69.96C99.148 70.5733 99.2946 71.0533 99.588 71.4C99.908 71.7467 100.335 71.92 100.868 71.92H109.268ZM137.062 76.4C133.942 76.4 131.248 75.8 128.982 74.6C126.742 73.3733 125.035 71.68 123.862 69.52C122.688 67.3333 122.102 64.8267 122.102 62C122.102 59.1733 122.688 56.68 123.862 54.52C125.035 52.3333 126.742 50.64 128.982 49.44C131.248 48.2133 133.942 47.6 137.062 47.6C140.182 47.6 142.862 48.2133 145.102 49.44C147.368 50.64 149.088 52.3333 150.262 54.52C151.435 56.68 152.022 59.1733 152.022 62C152.022 64.8267 151.435 67.3333 150.262 69.52C149.088 71.68 147.368 73.3733 145.102 74.6C142.862 75.8 140.182 76.4 137.062 76.4ZM137.062 72.2C140.102 72.2 142.462 71.2933 144.142 69.48C145.822 67.64 146.662 65.1467 146.662 62C146.662 58.8267 145.782 56.3333 144.022 54.52C142.288 52.7067 139.835 51.8 136.662 51.8C133.755 51.8 131.488 52.7333 129.862 54.6C128.262 56.44 127.462 58.9067 127.462 62C127.462 65.1467 128.302 67.64 129.982 69.48C131.662 71.2933 134.022 72.2 137.062 72.2ZM179.12 72.6C179.413 72.9733 179.56 73.4 179.56 73.88C179.56 74.3067 179.453 74.72 179.24 75.12C179.027 75.4933 178.747 75.7867 178.4 76C177.973 76.24 177.56 76.36 177.16 76.36C176.493 76.36 175.813 75.96 175.12 75.16L167.12 65.56L159.12 75.16C158.453 75.96 157.773 76.36 157.08 76.36C156.707 76.36 156.293 76.24 155.84 76C155.493 75.7867 155.213 75.4933 155 75.12C154.787 74.72 154.68 74.3067 154.68 73.88C154.68 73.4 154.827 72.9733 155.12 72.6L164 61.84L155.6 51.76C155.173 51.2533 154.96 50.68 154.96 50.04C154.96 49.64 155.053 49.2667 155.24 48.92C155.427 48.5467 155.68 48.2667 156 48.08C156.507 47.7867 156.973 47.64 157.4 47.64C158.12 47.64 158.8 48.0267 159.44 48.8L167.12 58.08L174.8 48.8C175.44 48.0267 176.12 47.64 176.84 47.64C177.32 47.64 177.787 47.7867 178.24 48.08C178.56 48.2667 178.813 48.5467 179 48.92C179.187 49.2667 179.28 49.64 179.28 50.04C179.28 50.68 179.067 51.2533 178.64 51.76L170.24 61.84L179.12 72.6Z" fill="white"/>
</svg>
